<svg xmlns="http://www.w3.org/2000/svg" viewBox="0 0 32 32">
  <title>Deutsch Trainer</title>
  <rect width="32" height="32" rx="7" fill="#101c33"/>
  <g>
    <path d="M4.6 12.8 L6.1 2.4 L14.8 7.4 Z" fill="#f4913f"/>
    <path d="M27.4 12.8 L25.9 2.4 L17.2 7.4 Z" fill="#e07f31"/>
    <path d="M7.5 6.6 L8.1 3.6 L12.1 6.0 Z" fill="#ffd9b0"/>
    <path d="M24.5 6.6 L23.9 3.6 L19.9 6.0 Z" fill="#ffcfa0"/>
    <path d="M4.7 12.7 C4.7 8.7 9.6 6.3 16 6.3 C22.4 6.3 27.3 8.7 27.3 12.7 C27.3 19.6 22.4 27.7 16 27.7 C9.6 27.7 4.7 19.6 4.7 12.7 Z" fill="#f4913f"/>
    <path d="M16 6.3 C22.4 6.3 27.3 8.7 27.3 12.7 C27.3 19.6 22.4 27.7 16 27.7 C19.9 24.9 22.6 19.2 22.6 13.1 C22.6 9.7 19.8 7.1 16 6.3 Z" fill="#e88a37"/>
    <path d="M11.7 18.5 C13.5 17.6 18.5 17.6 20.3 18.5 C20.3 22.7 18.4 26.3 16 27.7 C13.6 26.3 11.7 22.7 11.7 18.5 Z" fill="#fff3e3"/>
    <ellipse cx="11.4" cy="14" rx="2" ry="2.4" fill="#1b1a22"/>
    <ellipse cx="20.6" cy="14" rx="2" ry="2.4" fill="#1b1a22"/>
    <path d="M16 22.3 L13.8 19.9 L18.2 19.9 Z" fill="#1b1a22"/>
  </g>
</svg>
